<svg width="32" height="32" viewBox="0 0 32 32" fill="none" xmlns="http://www.w3.org/2000/svg"><path d="M19.5999 20.4C19.7925 20.6568 19.886 20.9744 19.8633 21.2945C19.8405 21.6147 19.703 21.9159 19.4761 22.1428C19.2491 22.3698 18.9479 22.5072 18.6278 22.53C18.3076 22.5527 17.99 22.4592 17.7333 22.2667L12.3999 16.9333C12.1556 16.6841 12.0188 16.349 12.0188 16C12.0188 15.651 12.1556 15.3159 12.3999 15.0667L17.7333 9.73334C17.99 9.54077 18.3076 9.44728 18.6278 9.47003C18.9479 9.49278 19.2491 9.63025 19.4761 9.8572C19.703 10.0841 19.8405 10.3853 19.8633 10.7055C19.886 11.0256 19.7925 11.3432 19.5999 11.6L15.2266 16L19.6266 20.4H19.5999Z" fill="white"/></svg>
