<svg width="24" height="24" viewBox="0 0 24 24" fill="none" xmlns="http://www.w3.org/2000/svg"><path fill-rule="evenodd" clip-rule="evenodd" d="M10.5856 12L5.63589 7.05025C5.44836 6.86271 5.343 6.60836 5.343 6.34314C5.343 6.07792 5.44836 5.82357 5.63589 5.63603C5.82343 5.4485 6.07778 5.34314 6.343 5.34314C6.60822 5.34314 6.86257 5.4485 7.05011 5.63603L11.9998 10.5857L16.9495 5.63606C17.137 5.44853 17.3914 5.34317 17.6566 5.34317C17.9218 5.34317 18.1762 5.44853 18.3637 5.63606C18.5512 5.8236 18.6566 6.07795 18.6566 6.34317C18.6566 6.60838 18.5512 6.86274 18.3637 7.05028L13.414 12L18.3638 16.9497C18.5514 17.1373 18.6567 17.3916 18.6567 17.6568C18.6567 17.9221 18.5514 18.1764 18.3638 18.364C18.1763 18.5515 17.9219 18.6568 17.6567 18.6568C17.3915 18.6568 17.1371 18.5515 16.9496 18.364L11.9998 13.4142L7.05 18.364C6.86247 18.5515 6.60811 18.6569 6.3429 18.6569C6.07768 18.6569 5.82332 18.5515 5.63579 18.364C5.44825 18.1764 5.3429 17.9221 5.3429 17.6569C5.3429 17.3917 5.44825 17.1373 5.63579 16.9498L10.5856 12Z" fill="white"/></svg>
