<svg width="24" height="24" viewBox="0 0 24 24" fill="none" xmlns="http://www.w3.org/2000/svg"><path d="M16.9564 2.15059C15.402 2.12317 13.8976 2.70015 12.7602 3.75999L12.0002 4.50999L11.2402 3.75999C10.1028 2.70015 8.59847 2.12317 7.04406 2.15059C5.48965 2.17802 4.00657 2.80771 2.90726 3.90702C1.80796 5.00632 1.17826 6.4894 1.15084 8.04381C1.12341 9.59822 1.7004 11.1026 2.76024 12.24L11.2902 20.78C11.3832 20.8737 11.4938 20.9481 11.6157 20.9989C11.7375 21.0497 11.8682 21.0758 12.0002 21.0758C12.1322 21.0758 12.263 21.0497 12.3848 20.9989C12.5067 20.9481 12.6173 20.8737 12.7102 20.78L21.2402 12.24C22.3001 11.1026 22.8771 9.59822 22.8496 8.04381C22.8222 6.4894 22.1925 5.00632 21.0932 3.90702C19.9939 2.80771 18.5108 2.17802 16.9564 2.15059Z" fill="#2D3748"/></svg>
