<svg width="24" height="24" viewBox="0 0 24 24" fill="none" xmlns="http://www.w3.org/2000/svg"><path d="M12.7602 3.75999C13.8976 2.70015 15.402 2.12317 16.9564 2.15059C18.5108 2.17802 19.9939 2.80771 21.0932 3.90702C22.1925 5.00632 22.8222 6.4894 22.8496 8.04381C22.8771 9.59822 22.3001 11.1026 21.2402 12.24L12.7102 20.78C12.6173 20.8737 12.5067 20.9481 12.3848 20.9989C12.263 21.0497 12.1322 21.0758 12.0002 21.0758C11.8682 21.0758 11.7375 21.0497 11.6157 20.9989C11.4938 20.9481 11.3832 20.8737 11.2902 20.78L2.76024 12.24C1.7004 11.1026 1.12341 9.59822 1.15084 8.04381C1.17826 6.4894 1.80796 5.00632 2.90726 3.90702C4.00657 2.80771 5.48965 2.17802 7.04406 2.15059C8.59847 2.12317 10.1028 2.70015 11.2402 3.75999L12.0002 4.50999L12.7602 3.75999ZM19.8302 10.83C20.5808 10.0794 21.0025 9.06145 21.0025 7.99999C21.0025 6.93854 20.5808 5.92056 19.8302 5.16999C19.4586 4.79835 19.0174 4.50355 18.5318 4.30242C18.0462 4.10129 17.5258 3.99777 17.0002 3.99777C15.9388 3.99777 14.9208 4.41943 14.1702 5.16999L12.7102 6.63999C12.6173 6.73372 12.5067 6.80812 12.3848 6.85888C12.263 6.90965 12.1322 6.93579 12.0002 6.93579C11.8682 6.93579 11.7375 6.90965 11.6157 6.85888C11.4938 6.80812 11.3832 6.73372 11.2902 6.63999L9.83024 5.16999C9.07967 4.41943 8.06169 3.99777 7.00024 3.99777C5.93878 3.99777 4.9208 4.41943 4.17024 5.16999C3.41967 5.92056 2.99801 6.93854 2.99801 7.99999C2.99801 9.06145 3.41967 10.0794 4.17024 10.83L12.0002 18.66L19.8302 10.83Z" fill="#2D3748"/></svg>
