<svg width="220" height="30" viewBox="0 0 220 30" fill="none" xmlns="http://www.w3.org/2000/svg">
<path d="M195.189 0.605194C194.746 0.605194 194.373 0.954299 194.373 1.37323V28.7433C194.373 29.1855 194.723 29.5113 195.189 29.5113C195.609 29.5113 195.959 29.1622 195.959 28.7433V1.37323C195.959 0.954299 195.609 0.605194 195.189 0.605194Z" fill="url(#paint0_linear_2_80)"/>
<path d="M189.708 0.605194C189.241 0.605194 188.891 0.954299 188.891 1.37323V28.7433C188.891 29.1855 189.241 29.5113 189.708 29.5113C190.127 29.5113 190.477 29.1622 190.477 28.7433V1.37323C190.477 0.954299 190.127 0.605194 189.708 0.605194Z" fill="url(#paint1_linear_2_80)"/>
<path d="M70.9566 18.5027C70.4901 18.3631 70.0702 18.5958 69.9536 19.038C68.1809 24.647 62.9559 28.3941 56.9612 28.3941C49.0538 28.3941 43.5256 22.8782 43.5256 14.9884C43.5256 7.1218 49.0538 1.62917 56.9612 1.62917C62.9326 1.62917 68.1575 5.37626 69.9536 10.9387C70.0702 11.3809 70.4901 11.6137 70.9566 11.4973C71.1432 11.4507 71.3298 11.3344 71.4231 11.1482C71.5398 10.9387 71.5864 10.6827 71.5164 10.4732C69.5338 4.30566 63.5624 0 56.9845 0C52.7159 0 48.8672 1.5128 46.1614 4.25911C43.4557 6.98215 41.9861 10.7758 41.9861 14.9884C41.9861 19.2009 43.479 23.0178 46.1614 25.7409C48.8905 28.4872 52.7393 30 56.9845 30C63.5857 30 69.5571 25.6711 71.5164 19.5035C71.5864 19.3173 71.5631 19.1078 71.4698 18.8984C71.3531 18.7355 71.1665 18.5725 70.9566 18.5027Z" fill="url(#paint2_linear_2_80)"/>
<path d="M56.9612 22.7386C54.2321 22.7386 51.7363 21.249 50.3834 18.8518C50.1734 18.5027 49.6603 18.3631 49.2637 18.5725L49.2404 18.5958C48.8905 18.8053 48.7506 19.3406 48.9605 19.6897C50.6166 22.5756 53.6723 24.391 56.9379 24.391C62.0229 24.391 66.1515 20.2017 66.1515 15.0349C66.1515 9.89139 62.0229 5.72537 56.9379 5.72537C53.649 5.72537 50.5933 7.51746 48.9605 10.3801V10.4034C48.7739 10.7758 48.8905 11.218 49.2171 11.474L49.2871 11.5206C49.4737 11.6137 49.7069 11.6369 49.9169 11.5671C50.1268 11.4973 50.3134 11.3576 50.4067 11.1715C51.7363 8.77425 54.2554 7.28472 56.9612 7.28472C61.1598 7.28472 64.5654 10.7525 64.5654 15.0116C64.5654 19.2708 61.1598 22.7386 56.9612 22.7386Z" fill="url(#paint3_linear_2_80)"/>
<path d="M155.349 11.637C154.486 11.2879 153.763 10.9853 153.413 10.7293C152.97 10.3802 152.713 9.86816 152.69 9.37941C152.643 7.9597 154.089 7.65715 154.532 7.58733C156.492 7.37786 159.104 8.33209 159.851 8.63465C160.131 8.75102 160.411 8.72774 160.62 8.56482C160.854 8.40191 160.97 8.09935 160.947 7.82006C160.924 7.54078 160.737 7.33131 160.457 7.19167C158.451 6.35381 156.842 6.0047 155.209 6.0047C154.999 6.0047 154.766 6.0047 154.509 6.02797C152.48 6.12107 151.034 7.63387 151.104 9.54233C151.244 11.7301 153.016 12.4283 155.046 13.2429C156.608 13.8713 158.381 14.5695 159.967 16.059C161.67 17.6184 162.067 19.457 162.09 20.7138C162.137 22.6455 161.367 24.6005 160.037 25.9504C157.681 28.3011 152.41 29.3949 146.392 26.2762C145.925 26.0435 145.482 26.2762 145.296 26.6253C145.086 27.021 145.226 27.4632 145.622 27.6727C147.092 28.3942 148.584 28.9294 150.077 29.2786C151.36 29.5811 152.62 29.744 153.833 29.744C156.445 29.744 158.801 29.0225 160.55 27.6494C162.603 26.0202 163.676 23.623 163.676 20.6672C163.676 15.035 158.475 12.917 155.349 11.637Z" fill="url(#paint4_linear_2_80)"/>
<path d="M153.693 18.3865C154.672 18.7821 155.535 19.108 155.909 19.4338C156.305 19.7829 156.538 20.2949 156.538 20.7837C156.538 21.0862 156.445 21.5517 156.025 21.9241C154.299 23.5067 149.541 22.2034 147.162 20.5509C146.788 20.2949 146.322 20.4113 146.065 20.7837C145.855 21.1095 145.855 21.575 146.275 21.8543C148.305 23.3438 151.057 24.2049 153.716 24.2049C153.973 24.2049 154.229 24.2049 154.486 24.1817C155.466 24.1118 156.399 23.7394 157.075 23.1343C157.798 22.4594 158.171 21.575 158.125 20.6208C157.985 18.3632 156.165 17.6417 154.043 16.8271C152.55 16.2453 150.847 15.5936 149.331 14.267C147.651 12.7775 147.232 10.9621 147.185 9.70532C147.092 7.72704 147.815 5.72549 149.121 4.30578C151.523 1.69911 155.372 1.30345 160.597 3.09554C160.854 3.21191 161.134 3.16536 161.344 3.00245C161.577 2.81625 161.693 2.5137 161.647 2.23441C161.6 1.95512 161.414 1.74566 161.134 1.65256C159.524 1.09399 158.101 0.744882 156.818 0.558691C156.212 0.465596 155.605 0.442322 154.999 0.442322C149.378 0.442322 145.599 4.11959 145.599 9.56567C145.599 15.1747 150.474 17.1064 153.693 18.3865Z" fill="url(#paint5_linear_2_80)"/>
<path d="M219.938 27.277C219.798 26.9046 219.285 26.6952 218.888 26.8581C217.372 27.533 215.669 27.8589 213.803 27.8589C208.135 27.8589 203.75 25.066 201.767 20.225C200.414 16.8503 200.414 12.9403 201.767 9.54235C203.773 4.70138 208.158 1.90852 213.803 1.90852C215.576 1.90852 217.279 2.25763 218.888 2.9093C219.098 2.97912 219.331 2.97912 219.541 2.88602C219.728 2.79293 219.868 2.65329 219.938 2.46709C220.078 2.02489 219.891 1.60596 219.494 1.46631C217.675 0.721551 215.762 0.325897 213.803 0.325897C207.482 0.325897 202.583 3.46787 200.344 8.9605C198.828 12.661 198.828 17.0831 200.344 20.8302C202.56 26.2995 207.482 29.4415 213.803 29.4415C215.809 29.4415 217.722 29.0691 219.494 28.3476H219.518C219.938 28.1382 220.101 27.696 219.938 27.277Z" fill="url(#paint6_linear_2_80)"/>
<path d="M213.803 7.42439C215.482 7.42439 216.695 7.72695 218.142 8.49498C218.515 8.68118 218.958 8.5648 219.168 8.2157L219.191 8.19243C219.378 7.79677 219.261 7.33129 218.888 7.12183C217.255 6.21415 215.832 5.84177 213.803 5.84177C209.978 5.84177 206.945 7.86659 205.639 11.2413C204.729 13.5454 204.729 16.2219 205.639 18.5726C206.922 21.924 209.978 23.9256 213.803 23.9256C215.809 23.9256 217.255 23.5764 218.888 22.6455C219.051 22.5291 219.191 22.3662 219.238 22.1567C219.285 21.9706 219.261 21.7611 219.168 21.5982C218.958 21.2025 218.538 21.0629 218.118 21.2723C216.695 22.0636 215.506 22.3662 213.803 22.3662C209.488 22.3662 207.762 19.6199 207.109 17.9907C206.339 16.0357 206.339 13.7316 207.109 11.7766C208.228 9.03028 210.677 7.42439 213.803 7.42439Z" fill="url(#paint7_linear_2_80)"/>
<path d="M136.338 25.578C136.245 25.2754 135.942 25.0659 135.592 25.0659H127.078C126.705 25.0659 126.402 25.2754 126.332 25.578L125.305 28.0217C125.212 28.2079 125.189 28.4174 125.282 28.6268C125.375 28.8596 125.562 29.0225 125.772 29.0923C125.982 29.1621 126.215 29.1621 126.402 29.0458C126.565 28.9527 126.705 28.7898 126.752 28.6036L127.568 26.602H135.032L135.872 28.6036C136.012 28.9294 136.292 29.1156 136.595 29.1156C136.688 29.1156 136.782 29.0923 136.875 29.069C137.061 28.9992 137.225 28.8596 137.318 28.6501C137.411 28.4407 137.435 28.2312 137.341 28.0217L136.338 25.578Z" fill="url(#paint8_linear_2_80)"/>
<path d="M132.093 0.512024C131.977 0.18619 131.673 0 131.323 0C130.997 0 130.717 0.209465 130.577 0.535299L119.334 28.045C119.241 28.2312 119.217 28.4407 119.311 28.6501C119.404 28.8829 119.567 29.0458 119.777 29.1156C120.01 29.1854 120.244 29.1854 120.43 29.069C120.594 28.976 120.734 28.813 120.804 28.6268L131.323 2.88596L141.843 28.6268C141.913 28.813 142.03 28.976 142.216 29.069C142.333 29.1389 142.45 29.1621 142.59 29.1621C142.683 29.1621 142.776 29.1389 142.87 29.1156C143.056 29.0458 143.196 28.9294 143.289 28.7432C143.383 28.5337 143.406 28.301 143.313 28.0915L132.093 0.512024Z" fill="url(#paint9_linear_2_80)"/>
<path d="M128.501 20.3413C128.501 20.7603 128.874 21.1094 129.318 21.1094H133.353C133.819 21.1094 134.169 20.7603 134.169 20.3413C134.169 20.2482 134.169 20.1552 134.099 20.0155L132.117 15.128C131.93 14.6858 131.487 14.4996 131.044 14.6858C130.67 14.8254 130.484 15.2909 130.624 15.6866L132.233 19.5966H129.341C128.874 19.5733 128.501 19.9224 128.501 20.3413Z" fill="url(#paint10_linear_2_80)"/>
<path d="M81.7331 11.2413L81.7097 11.218C81.5465 11.0318 81.3132 10.9155 81.0566 10.9155C80.5901 10.9155 80.2402 11.2646 80.2402 11.7068V28.7432C80.2402 28.976 80.3335 29.1854 80.5201 29.3251C80.6601 29.4415 80.87 29.5113 81.0566 29.5113C81.5231 29.5113 81.873 29.1854 81.873 28.72V14.2204L92.2996 29.1854L92.3229 29.2087C92.5095 29.4182 92.7428 29.5113 92.9527 29.5113C93.1393 29.5113 93.3026 29.4415 93.4426 29.3484C93.7925 29.0924 93.8858 28.6269 93.6525 28.2312L81.7331 11.2413Z" fill="url(#paint11_linear_2_80)"/>
<path d="M97.9211 0.605194C97.4546 0.605194 97.1047 0.954302 97.1047 1.41978V28.7666C97.1047 29.2088 97.4546 29.5579 97.9211 29.5579C98.3876 29.5579 98.7375 29.232 98.7375 28.7666V1.41978C98.7375 0.954302 98.3876 0.605194 97.9211 0.605194Z" fill="url(#paint12_linear_2_80)"/>
<path d="M75.5751 0.605194C75.2019 0.605194 74.782 0.88448 74.782 1.41978V28.7666C74.782 29.2088 75.1319 29.5579 75.5751 29.5579C76.0183 29.5579 76.3682 29.232 76.3682 28.7666V1.41978C76.3682 0.88448 75.9483 0.605194 75.5751 0.605194Z" fill="url(#paint13_linear_2_80)"/>
<path d="M92.4396 19.2243C92.5096 19.2243 92.5795 19.2243 92.6728 19.2011C93.046 19.108 93.3026 18.7821 93.3026 18.4097V1.39656C93.3026 0.931078 92.9527 0.58197 92.4862 0.58197C92.0197 0.58197 91.6698 0.931078 91.6698 1.39656V15.8729L81.1733 0.977629C81.0333 0.74489 80.8001 0.605245 80.5435 0.605245C80.2403 0.605245 79.9604 0.791436 79.8204 1.07072C79.6805 1.32674 79.7271 1.62929 79.8904 1.86203L91.7865 18.8985C91.9264 19.108 92.183 19.2243 92.4396 19.2243Z" fill="url(#paint14_linear_2_80)"/>
<path d="M12.9458 16.9899H6.29797C5.83145 16.9899 5.48157 17.339 5.48157 17.8045V28.7664C5.48157 29.2086 5.83145 29.5577 6.29797 29.5577C6.76448 29.5577 7.11436 29.2319 7.11436 28.7664V18.619H12.9458C13.389 18.619 13.7155 18.2699 13.7155 17.8045C13.7155 17.339 13.389 16.9899 12.9458 16.9899Z" fill="url(#paint15_linear_2_80)"/>
<path d="M16.188 0.605194H0.816398C0.373211 0.605194 0 0.954299 0 1.37323V28.7433C0 29.1855 0.349885 29.5346 0.816398 29.5346C1.28291 29.5346 1.6328 29.2088 1.6328 28.7433V2.18781H16.188C16.6312 2.18781 16.9578 1.83871 16.9578 1.3965C16.9578 0.9543 16.6312 0.605194 16.188 0.605194Z" fill="url(#paint16_linear_2_80)"/>
<path d="M16.188 6.07443H6.29797C5.85478 6.07443 5.48157 6.42354 5.48157 6.84247V12.3351C5.48157 12.7773 5.85478 13.1497 6.29797 13.1497H12.9458C13.389 13.1497 13.7155 12.8006 13.7155 12.3351C13.7155 11.8696 13.389 11.5205 12.9458 11.5205H7.11436V7.65705H16.188C16.6312 7.65705 16.9578 7.30795 16.9578 6.86574C16.9578 6.42354 16.6312 6.07443 16.188 6.07443Z" fill="url(#paint17_linear_2_80)"/>
<path d="M26.4745 18.782C26.3113 18.5726 26.078 18.4795 25.8214 18.4795C25.6815 18.4795 25.5415 18.526 25.4016 18.5958L25.3316 18.6424C25.1217 18.8518 25.0284 19.0846 25.075 19.3173V28.7665C25.075 29.2087 25.4249 29.5811 25.8448 29.5811C26.2646 29.5811 26.6612 29.1854 26.6612 28.7665V21.6214L32.306 29.1854C32.4226 29.3716 32.6325 29.5113 32.8658 29.5345C33.0757 29.5578 33.309 29.5113 33.4722 29.3716C33.8221 29.0923 33.8688 28.6036 33.6122 28.2778L26.4745 18.782Z" fill="url(#paint18_linear_2_80)"/>
<path d="M32.7259 18.4796C36.9012 17.7348 40.0968 13.9412 40.0968 9.61221C40.0968 4.63161 36.0848 0.558685 31.1398 0.558685H20.3633C19.9435 0.558685 19.5936 0.931067 19.5936 1.37327V28.7433C19.5936 29.1855 19.9435 29.5579 20.3633 29.5579C20.8065 29.5579 21.1797 29.1855 21.1797 28.7433V2.18786H31.1631C35.1984 2.18786 38.4873 5.51602 38.4873 9.61221C38.4873 13.6851 35.1984 16.99 31.1631 16.99C30.7199 16.99 30.3933 17.3391 30.3933 17.8046C30.3933 18.0141 30.4633 18.2003 30.6033 18.3399L39.0472 29.2088C39.2104 29.4183 39.4204 29.5346 39.6536 29.5346C39.8402 29.5346 40.0268 29.4648 40.1901 29.3484C40.3534 29.2321 40.4467 29.0692 40.4934 28.883C40.54 28.6735 40.47 28.4408 40.3301 28.2778L32.7259 18.4796Z" fill="url(#paint19_linear_2_80)"/>
<path d="M30.6966 11.5671H29.1571C28.6906 11.5671 28.3407 11.9162 28.3407 12.3351C28.3407 12.7773 28.6906 13.1031 29.1571 13.1031H30.6966C32.7259 13.1031 34.312 11.5671 34.312 9.61205C34.312 7.63378 32.7259 6.07443 30.6966 6.07443H25.8681C25.425 6.07443 25.0751 6.42354 25.0751 6.86574C25.0751 7.30795 25.4016 7.65705 25.8681 7.65705H30.6966C31.8628 7.65705 32.7259 8.49491 32.7259 9.61205C32.7259 10.7059 31.8395 11.5671 30.6966 11.5671Z" fill="url(#paint20_linear_2_80)"/>
<path d="M184.949 6.07443H178.068C177.648 6.07443 177.298 6.42354 177.298 6.84247V28.7432C177.298 29.1621 177.648 29.5112 178.068 29.5112C178.488 29.5112 178.838 29.1621 178.838 28.7432V7.68033H184.926C185.346 7.68033 185.696 7.30794 185.696 6.84247C185.719 6.42354 185.392 6.07443 184.949 6.07443Z" fill="url(#paint21_linear_2_80)"/>
<path d="M172.633 6.07443H165.519C165.099 6.07443 164.749 6.42354 164.749 6.84247C164.749 7.30794 165.099 7.68033 165.519 7.68033H171.817V28.7432C171.817 29.1854 172.167 29.5112 172.633 29.5112C173.053 29.5112 173.403 29.1621 173.403 28.7432V6.84247C173.403 6.42354 173.053 6.07443 172.633 6.07443Z" fill="url(#paint22_linear_2_80)"/>
<path d="M184.926 0.651764H165.542C165.122 0.651764 164.772 1.00087 164.772 1.4198C164.772 1.83873 165.122 2.18784 165.542 2.18784H184.926C185.369 2.18784 185.742 1.83873 185.742 1.4198C185.742 1.00087 185.369 0.651764 184.926 0.651764Z" fill="url(#paint23_linear_2_80)"/>
<path d="M122.366 6.84247C122.366 6.42354 122.016 6.07443 121.597 6.07443H114.716C114.296 6.07443 113.946 6.42354 113.946 6.84247V28.7432C113.946 29.1621 114.296 29.5112 114.716 29.5112C115.135 29.5112 115.485 29.1621 115.485 28.7432V7.68033H121.573C122.016 7.7036 122.366 7.33122 122.366 6.84247Z" fill="url(#paint24_linear_2_80)"/>
<path d="M109.257 6.07443H102.4C101.98 6.07443 101.63 6.42354 101.63 6.84247C101.63 7.30794 101.98 7.68033 102.4 7.68033H108.464V28.7432C108.464 29.1854 108.814 29.5112 109.281 29.5112C109.701 29.5112 110.05 29.1621 110.05 28.7432V6.84247C110.027 6.42354 109.701 6.07443 109.257 6.07443Z" fill="url(#paint25_linear_2_80)"/>
<path d="M102.4 2.18784H121.55C121.993 2.18784 122.366 1.83873 122.366 1.4198C122.366 1.00087 122.017 0.651764 121.55 0.651764H102.4C101.98 0.651764 101.63 1.00087 101.63 1.4198C101.63 1.83873 101.98 2.18784 102.4 2.18784Z" fill="url(#paint26_linear_2_80)"/>
<defs>
<linearGradient id="paint0_linear_2_80" x1="-0.000847825" y1="15.0131" x2="220.002" y2="15.0131" gradientUnits="userSpaceOnUse">
<stop stop-color="#EC008C"/>
<stop offset="0.5933" stop-color="#9B096E"/>
<stop offset="0.989" stop-color="#4C2A7A"/>
<stop offset="1" stop-color="#4C2A7A"/>
</linearGradient>
<linearGradient id="paint1_linear_2_80" x1="-0.000770493" y1="15.0131" x2="220.002" y2="15.0131" gradientUnits="userSpaceOnUse">
<stop stop-color="#EC008C"/>
<stop offset="0.5933" stop-color="#9B096E"/>
<stop offset="0.989" stop-color="#4C2A7A"/>
<stop offset="1" stop-color="#4C2A7A"/>
</linearGradient>
<linearGradient id="paint2_linear_2_80" x1="-4.34938e-05" y1="15.0131" x2="220.002" y2="15.0131" gradientUnits="userSpaceOnUse">
<stop stop-color="#EC008C"/>
<stop offset="0.5933" stop-color="#9B096E"/>
<stop offset="0.989" stop-color="#4C2A7A"/>
<stop offset="1" stop-color="#4C2A7A"/>
</linearGradient>
<linearGradient id="paint3_linear_2_80" x1="-5.84282e-05" y1="15.0131" x2="220.002" y2="15.0131" gradientUnits="userSpaceOnUse">
<stop stop-color="#EC008C"/>
<stop offset="0.5933" stop-color="#9B096E"/>
<stop offset="0.989" stop-color="#4C2A7A"/>
<stop offset="1" stop-color="#4C2A7A"/>
</linearGradient>
<linearGradient id="paint4_linear_2_80" x1="1.64357e-05" y1="15.0131" x2="220.002" y2="15.0131" gradientUnits="userSpaceOnUse">
<stop stop-color="#EC008C"/>
<stop offset="0.5933" stop-color="#9B096E"/>
<stop offset="0.989" stop-color="#4C2A7A"/>
<stop offset="1" stop-color="#4C2A7A"/>
</linearGradient>
<linearGradient id="paint5_linear_2_80" x1="-7.22061e-05" y1="15.0132" x2="220.002" y2="15.0132" gradientUnits="userSpaceOnUse">
<stop stop-color="#EC008C"/>
<stop offset="0.5933" stop-color="#9B096E"/>
<stop offset="0.989" stop-color="#4C2A7A"/>
<stop offset="1" stop-color="#4C2A7A"/>
</linearGradient>
<linearGradient id="paint6_linear_2_80" x1="0.000255776" y1="15.0131" x2="220.002" y2="15.0131" gradientUnits="userSpaceOnUse">
<stop stop-color="#EC008C"/>
<stop offset="0.5933" stop-color="#9B096E"/>
<stop offset="0.989" stop-color="#4C2A7A"/>
<stop offset="1" stop-color="#4C2A7A"/>
</linearGradient>
<linearGradient id="paint7_linear_2_80" x1="-0.00115882" y1="15.0131" x2="220.002" y2="15.0131" gradientUnits="userSpaceOnUse">
<stop stop-color="#EC008C"/>
<stop offset="0.5933" stop-color="#9B096E"/>
<stop offset="0.989" stop-color="#4C2A7A"/>
<stop offset="1" stop-color="#4C2A7A"/>
</linearGradient>
<linearGradient id="paint8_linear_2_80" x1="6.22294e-05" y1="15.0131" x2="220.002" y2="15.0131" gradientUnits="userSpaceOnUse">
<stop stop-color="#EC008C"/>
<stop offset="0.5933" stop-color="#9B096E"/>
<stop offset="0.989" stop-color="#4C2A7A"/>
<stop offset="1" stop-color="#4C2A7A"/>
</linearGradient>
<linearGradient id="paint9_linear_2_80" x1="-0.000171047" y1="15.0131" x2="220.002" y2="15.0131" gradientUnits="userSpaceOnUse">
<stop stop-color="#EC008C"/>
<stop offset="0.5933" stop-color="#9B096E"/>
<stop offset="0.989" stop-color="#4C2A7A"/>
<stop offset="1" stop-color="#4C2A7A"/>
</linearGradient>
<linearGradient id="paint10_linear_2_80" x1="-0.000688201" y1="15.0131" x2="220.003" y2="15.0131" gradientUnits="userSpaceOnUse">
<stop stop-color="#EC008C"/>
<stop offset="0.5933" stop-color="#9B096E"/>
<stop offset="0.989" stop-color="#4C2A7A"/>
<stop offset="1" stop-color="#4C2A7A"/>
</linearGradient>
<linearGradient id="paint11_linear_2_80" x1="-0.000106142" y1="15.0131" x2="220.002" y2="15.0131" gradientUnits="userSpaceOnUse">
<stop stop-color="#EC008C"/>
<stop offset="0.5933" stop-color="#9B096E"/>
<stop offset="0.989" stop-color="#4C2A7A"/>
<stop offset="1" stop-color="#4C2A7A"/>
</linearGradient>
<linearGradient id="paint12_linear_2_80" x1="-0.000562396" y1="15.0131" x2="220.003" y2="15.0131" gradientUnits="userSpaceOnUse">
<stop stop-color="#EC008C"/>
<stop offset="0.5933" stop-color="#9B096E"/>
<stop offset="0.989" stop-color="#4C2A7A"/>
<stop offset="1" stop-color="#4C2A7A"/>
</linearGradient>
<linearGradient id="paint13_linear_2_80" x1="-0.000320083" y1="15.0131" x2="220.003" y2="15.0131" gradientUnits="userSpaceOnUse">
<stop stop-color="#EC008C"/>
<stop offset="0.5933" stop-color="#9B096E"/>
<stop offset="0.989" stop-color="#4C2A7A"/>
<stop offset="1" stop-color="#4C2A7A"/>
</linearGradient>
<linearGradient id="paint14_linear_2_80" x1="0.000138368" y1="15.0132" x2="220.002" y2="15.0132" gradientUnits="userSpaceOnUse">
<stop stop-color="#EC008C"/>
<stop offset="0.5933" stop-color="#9B096E"/>
<stop offset="0.989" stop-color="#4C2A7A"/>
<stop offset="1" stop-color="#4C2A7A"/>
</linearGradient>
<linearGradient id="paint15_linear_2_80" x1="3.70267e-05" y1="15.013" x2="220.002" y2="15.013" gradientUnits="userSpaceOnUse">
<stop stop-color="#EC008C"/>
<stop offset="0.5933" stop-color="#9B096E"/>
<stop offset="0.989" stop-color="#4C2A7A"/>
<stop offset="1" stop-color="#4C2A7A"/>
</linearGradient>
<linearGradient id="paint16_linear_2_80" x1="0" y1="15.0131" x2="220.002" y2="15.0131" gradientUnits="userSpaceOnUse">
<stop stop-color="#EC008C"/>
<stop offset="0.5933" stop-color="#9B096E"/>
<stop offset="0.989" stop-color="#4C2A7A"/>
<stop offset="1" stop-color="#4C2A7A"/>
</linearGradient>
<linearGradient id="paint17_linear_2_80" x1="3.79283e-05" y1="15.013" x2="220.002" y2="15.013" gradientUnits="userSpaceOnUse">
<stop stop-color="#EC008C"/>
<stop offset="0.5933" stop-color="#9B096E"/>
<stop offset="0.989" stop-color="#4C2A7A"/>
<stop offset="1" stop-color="#4C2A7A"/>
</linearGradient>
<linearGradient id="paint18_linear_2_80" x1="-8.92209e-05" y1="15.0131" x2="220.002" y2="15.0131" gradientUnits="userSpaceOnUse">
<stop stop-color="#EC008C"/>
<stop offset="0.5933" stop-color="#9B096E"/>
<stop offset="0.989" stop-color="#4C2A7A"/>
<stop offset="1" stop-color="#4C2A7A"/>
</linearGradient>
<linearGradient id="paint19_linear_2_80" x1="1.40752e-05" y1="15.0132" x2="220.002" y2="15.0132" gradientUnits="userSpaceOnUse">
<stop stop-color="#EC008C"/>
<stop offset="0.5933" stop-color="#9B096E"/>
<stop offset="0.989" stop-color="#4C2A7A"/>
<stop offset="1" stop-color="#4C2A7A"/>
</linearGradient>
<linearGradient id="paint20_linear_2_80" x1="-1.09437e-05" y1="15.013" x2="220.002" y2="15.013" gradientUnits="userSpaceOnUse">
<stop stop-color="#EC008C"/>
<stop offset="0.5933" stop-color="#9B096E"/>
<stop offset="0.989" stop-color="#4C2A7A"/>
<stop offset="1" stop-color="#4C2A7A"/>
</linearGradient>
<linearGradient id="paint21_linear_2_80" x1="-0.000245453" y1="15.013" x2="220.002" y2="15.013" gradientUnits="userSpaceOnUse">
<stop stop-color="#EC008C"/>
<stop offset="0.5933" stop-color="#9B096E"/>
<stop offset="0.989" stop-color="#4C2A7A"/>
<stop offset="1" stop-color="#4C2A7A"/>
</linearGradient>
<linearGradient id="paint22_linear_2_80" x1="-9.67018e-05" y1="15.013" x2="220.002" y2="15.013" gradientUnits="userSpaceOnUse">
<stop stop-color="#EC008C"/>
<stop offset="0.5933" stop-color="#9B096E"/>
<stop offset="0.989" stop-color="#4C2A7A"/>
<stop offset="1" stop-color="#4C2A7A"/>
</linearGradient>
<linearGradient id="paint23_linear_2_80" x1="-0.000174665" y1="15.0131" x2="220.002" y2="15.0131" gradientUnits="userSpaceOnUse">
<stop stop-color="#EC008C"/>
<stop offset="0.5933" stop-color="#9B096E"/>
<stop offset="0.989" stop-color="#4C2A7A"/>
<stop offset="1" stop-color="#4C2A7A"/>
</linearGradient>
<linearGradient id="paint24_linear_2_80" x1="0.000263555" y1="15.013" x2="220.002" y2="15.013" gradientUnits="userSpaceOnUse">
<stop stop-color="#EC008C"/>
<stop offset="0.5933" stop-color="#9B096E"/>
<stop offset="0.989" stop-color="#4C2A7A"/>
<stop offset="1" stop-color="#4C2A7A"/>
</linearGradient>
<linearGradient id="paint25_linear_2_80" x1="-0.000287984" y1="15.013" x2="220.002" y2="15.013" gradientUnits="userSpaceOnUse">
<stop stop-color="#EC008C"/>
<stop offset="0.5933" stop-color="#9B096E"/>
<stop offset="0.989" stop-color="#4C2A7A"/>
<stop offset="1" stop-color="#4C2A7A"/>
</linearGradient>
<linearGradient id="paint26_linear_2_80" x1="2.87321e-05" y1="15.0131" x2="220.002" y2="15.0131" gradientUnits="userSpaceOnUse">
<stop stop-color="#EC008C"/>
<stop offset="0.5933" stop-color="#9B096E"/>
<stop offset="0.989" stop-color="#4C2A7A"/>
<stop offset="1" stop-color="#4C2A7A"/>
</linearGradient>
</defs>
</svg>
