<svg width="24" height="25" viewBox="0 0 24 25" fill="none" xmlns="http://www.w3.org/2000/svg">
<path d="M16.3751 11.25V6C16.3751 4.83968 15.9142 3.72688 15.0937 2.90641C14.2732 2.08594 13.1604 1.625 12.0001 1.625C10.8398 1.625 9.72698 2.08594 8.90651 2.90641C8.08604 3.72688 7.6251 4.83968 7.6251 6V11.25M20.8738 8.92483L22.3473 22.9248C22.4289 23.7007 21.8223 24.375 21.0418 24.375H2.95844C2.77435 24.3752 2.59227 24.3367 2.42404 24.2619C2.25582 24.1872 2.10519 24.0778 1.98196 23.9411C1.85874 23.8043 1.76565 23.6432 1.70877 23.4681C1.65188 23.293 1.63246 23.1079 1.65177 22.9248L3.12644 8.92483C3.16045 8.60232 3.31267 8.30382 3.55373 8.08688C3.79479 7.86995 4.10764 7.74994 4.43194 7.75H19.5683C20.2403 7.75 20.8038 8.2575 20.8738 8.92483ZM8.0626 11.25C8.0626 11.366 8.01651 11.4773 7.93446 11.5594C7.85242 11.6414 7.74114 11.6875 7.6251 11.6875C7.50907 11.6875 7.39779 11.6414 7.31575 11.5594C7.2337 11.4773 7.1876 11.366 7.1876 11.25C7.1876 11.134 7.2337 11.0227 7.31575 10.9406C7.39779 10.8586 7.50907 10.8125 7.6251 10.8125C7.74114 10.8125 7.85242 10.8586 7.93446 10.9406C8.01651 11.0227 8.0626 11.134 8.0626 11.25V11.25ZM16.8126 11.25C16.8126 11.366 16.7665 11.4773 16.6845 11.5594C16.6024 11.6414 16.4911 11.6875 16.3751 11.6875C16.2591 11.6875 16.1478 11.6414 16.0657 11.5594C15.9837 11.4773 15.9376 11.366 15.9376 11.25C15.9376 11.134 15.9837 11.0227 16.0657 10.9406C16.1478 10.8586 16.2591 10.8125 16.3751 10.8125C16.4911 10.8125 16.6024 10.8586 16.6845 10.9406C16.7665 11.0227 16.8126 11.134 16.8126 11.25V11.25Z" stroke="#494949" stroke-width="1.5" stroke-linecap="round" stroke-linejoin="round"/>
</svg>
